C:\Users\israe\Dropbox\PhDWork\ExperimentalData\subject7\145\P7S145W12_filtered35.mot
nRows=11
nColumns=28

name C:\Users\israe\Dropbox\PhDWork\ExperimentalData\subject7\145\P7S145W12_filtered35.mot
datacolumns 28
datarows 11
range 1.7400000000 1.7500000000
endheader
time	ground_force_1_vx	ground_force_1_vy	ground_force_1_vz	ground_force_1_px	ground_force_1_py	ground_force_1_pz	ground_moment_1_mx	ground_moment_1_my	ground_moment_1_mz	ground_force_2_vx	ground_force_2_vy	ground_force_2_vz	ground_force_2_px	ground_force_2_py	ground_force_2_pz	ground_moment_2_mx	ground_moment_2_my	ground_moment_2_mz	ground_force_3_vx	ground_force_3_vy	ground_force_3_vz	ground_force_3_px	ground_force_3_py	ground_force_3_pz	ground_moment_3_mx	ground_moment_3_my	ground_moment_3_mz
        1.7400000000	       -0.0018993534	        0.0000000000	       -0.2731505244	        0.1988394910	        0.0000558755	       -0.3004071320	       -0.0888590818	        0.0087057495	        0.0020425675	        0.0000000000	        0.0000000000	       -0.0000000000	        0.2029003487	       -0.0000795827	        0.4543649445	       -0.0000000000	       -0.0000000000	        0.0000000000	       -0.0000000000	        0.0000000000	       -0.0000000000	        0.2076431971	        0.0000770316	        1.3583900146	       -0.0000000000	        0.0000000000	       -0.0000000000	
        1.7410000000	        0.0003572890	        0.0000000000	       -0.2134776249	        0.1988394910	        0.0000558755	       -0.3004071320	       -0.0671063634	        0.0064632782	        0.0016560355	        0.0000000000	        0.0000000000	       -0.0000000000	        0.2029003487	       -0.0000795827	        0.4543649445	       -0.0000000000	       -0.0000000000	        0.0000000000	       -0.0000000000	        0.0000000000	       -0.0000000000	        0.2076431971	        0.0000770316	        1.3583900146	       -0.0000000000	       -0.0000000000	       -0.0000000000	
        1.7420000000	        0.0018664276	        0.0000000000	       -0.1595991068	        0.1988394910	        0.0000558755	       -0.3004071320	       -0.0481373439	        0.0045362729	        0.0012899118	       -0.0000000000	        0.0000000000	       -0.0000000000	        0.2029003487	       -0.0000795827	        0.4543649445	        0.0000000000	       -0.0000000000	       -0.0000000000	       -0.0000000000	        0.0000000000	       -0.0000000000	        0.2076431971	        0.0000770316	        1.3583900146	       -0.0000000000	       -0.0000000000	       -0.0000000000	
        1.7430000000	        0.0027736660	        0.0000000000	       -0.1130299818	        0.1988394910	        0.0000558755	       -0.3004071320	       -0.0322464554	        0.0029441437	        0.0009605857	       -0.0000000000	        0.0000000000	       -0.0000000000	        0.2029003487	       -0.0000795827	        0.4543649445	        0.0000000000	        0.0000000000	       -0.0000000000	       -0.0000000000	        0.0000000000	       -0.0000000000	        0.2076431971	        0.0000770316	        1.3583900146	       -0.0000000000	       -0.0000000000	       -0.0000000000	
        1.7440000000	        0.0032155464	        0.0000000000	       -0.0743403319	        0.1988394910	        0.0000558755	       -0.3004071320	       -0.0194405985	        0.0016790753	        0.0006768741	       -0.0000000000	        0.0000000000	       -0.0000000000	        0.2029003487	       -0.0000795827	        0.4543649445	        0.0000000000	        0.0000000000	       -0.0000000000	       -0.0000000000	        0.0000000000	       -0.0000000000	        0.2076431971	        0.0000770316	        1.3583900146	       -0.0000000000	       -0.0000000000	       -0.0000000000	
        1.7450000000	        0.0033139038	        0.0000000000	       -0.0434232066	        0.1988394910	        0.0000558755	       -0.3004071320	       -0.0095310995	        0.0007152647	        0.0004419019	       -0.0000000000	        0.0000000000	       -0.0000000000	        0.2029003487	       -0.0000795827	        0.4543649445	        0.0000000000	        0.0000000000	       -0.0000000000	        0.0000000000	        0.0000000000	       -0.0000000000	        0.2076431971	        0.0000770316	        1.3583900146	       -0.0000000000	       -0.0000000000	       -0.0000000000	
        1.7460000000	        0.0031729552	        0.0000000000	       -0.0197188722	        0.1988394910	        0.0000558755	       -0.3004071320	       -0.0022083783	        0.0000163185	        0.0002547350	       -0.0000000000	        0.0000000000	       -0.0000000000	        0.2029003487	       -0.0000795827	        0.4543649445	        0.0000000000	        0.0000000000	       -0.0000000000	        0.0000000000	        0.0000000000	       -0.0000000000	        0.2076431971	        0.0000770316	        1.3583900146	       -0.0000000000	       -0.0000000000	       -0.0000000000	
        1.7470000000	        0.0028784292	        0.0250596595	       -0.0023953827	        0.1988394910	        0.0000558755	       -0.3004071320	        0.0028997982	       -0.0004590631	        0.0001117434	       -0.0000000000	        0.0000000000	       -0.0000000000	        0.2029003487	       -0.0000795827	        0.4543649445	        0.0000000000	        0.0000000000	       -0.0000000000	        0.0000000000	        0.0000000000	       -0.0000000000	        0.2076431971	        0.0000770316	        1.3583900146	       -0.0000000000	       -0.0000000000	       -0.0000000000	
        1.7480000000	        0.0024981333	        0.0476387858	        0.0095118089	        0.1988394910	        0.0000558755	       -0.3004071320	        0.0061848546	       -0.0007529217	        0.0000076946	       -0.0000000000	        0.0000000000	       -0.0000000000	        0.2029003487	       -0.0000795827	        0.4543649445	        0.0000000000	        0.0000000000	       -0.0000000000	        0.0000000000	        0.0000000000	       -0.0000000000	        0.2076431971	        0.0000770316	        1.3583900146	       -0.0000000000	       -0.0000000000	       -0.0000000000	
        1.7490000000	        0.0020834626	        0.0599769287	        0.0169967897	        0.1988394910	        0.0000558755	       -0.3004071320	        0.0080267072	       -0.0009051669	       -0.0000634032	       -0.0000000000	        0.0000000000	       -0.0000000000	        0.2029003487	       -0.0000795827	        0.4543649445	        0.0000000000	        0.0000000000	       -0.0000000000	        0.0000000000	        0.0000000000	       -0.0000000000	        0.2076431971	        0.0000770316	        1.3583900146	       -0.0000000000	       -0.0000000000	       -0.0000000000	
        1.7500000000	        0.0016714525	        0.0645914459	        0.0210113894	        0.1988394910	        0.0000558755	       -0.3004071320	        0.0087736508	       -0.0009517603	       -0.0001076818	       -0.0000000000	        0.0000000000	       -0.0000000000	        0.2029003487	       -0.0000795827	        0.4543649445	        0.0000000000	        0.0000000000	       -0.0000000000	        0.0000000000	        0.0000000000	       -0.0000000000	        0.2076431971	        0.0000770316	        1.3583900146	        0.0000000000	       -0.0000000000	        0.0000000000	
